<svg xmlns="http://www.w3.org/2000/svg" width="50.195" height="86.048" viewBox="0 0 50.195 86.048">
  <g id="XMLID_2_" transform="translate(-18.8)">
    <path id="XMLID_28_" d="M22.385,0H65.41a3.6,3.6,0,0,1,3.585,3.585V82.463a3.6,3.6,0,0,1-3.585,3.585H22.385A3.6,3.6,0,0,1,18.8,82.463V3.585A3.6,3.6,0,0,1,22.385,0Zm0,10.756V75.292H65.41V10.756Z" fill="#5c6061" fill-rule="evenodd"/>
    <rect id="XMLID_27_" width="43" height="46" transform="translate(22.8 11)" fill="#5abfc7"/>
    <rect id="XMLID_26_" width="43" height="18" transform="translate(22.8 57)" fill="#0093ce"/>
    <path id="XMLID_25_" d="M40.593,4H51.349a1.8,1.8,0,0,1,1.793,1.793h0a1.8,1.8,0,0,1-1.793,1.793H40.593A1.8,1.8,0,0,1,38.8,5.793h0A1.8,1.8,0,0,1,40.593,4Z" transform="translate(-2.073 -0.415)" fill="#2b2d2d" fill-rule="evenodd"/>
    <path id="XMLID_24_" d="M30.593,7.585A1.793,1.793,0,1,0,28.8,5.793,1.8,1.8,0,0,0,30.593,7.585Z" transform="translate(-1.037 -0.415)" fill="#2b2d2d" fill-rule="evenodd"/>
    <path id="XMLID_23_" d="M42.593,88h7.171a1.8,1.8,0,0,1,1.793,1.793h0a1.8,1.8,0,0,1-1.793,1.793H42.593A1.8,1.8,0,0,1,40.8,89.793h0A1.8,1.8,0,0,1,42.593,88Z" transform="translate(-2.281 -9.122)" fill="#2b2d2d" fill-rule="evenodd"/>
    <path id="XMLID_22_" d="M29.041,20h4.482a2.219,2.219,0,0,1,2.241,2.241v4.482a2.219,2.219,0,0,1-2.241,2.241H29.041A2.219,2.219,0,0,1,26.8,26.723V22.241A2.219,2.219,0,0,1,29.041,20Z" transform="translate(-0.829 -2.073)" fill="#c5a86c" fill-rule="evenodd"/>
    <path id="XMLID_21_" d="M44.041,20h4.482a2.219,2.219,0,0,1,2.241,2.241v4.482a2.219,2.219,0,0,1-2.241,2.241H44.041A2.219,2.219,0,0,1,41.8,26.723V22.241A2.219,2.219,0,0,1,44.041,20Z" transform="translate(-2.384 -2.073)" fill="#839a8f" fill-rule="evenodd"/>
    <path id="XMLID_20_" d="M59.041,20h4.482a2.219,2.219,0,0,1,2.241,2.241v4.482a2.219,2.219,0,0,1-2.241,2.241H59.041A2.219,2.219,0,0,1,56.8,26.723V22.241A2.219,2.219,0,0,1,59.041,20Z" transform="translate(-3.939 -2.073)" fill="#4ca3ab" fill-rule="evenodd"/>
    <path id="XMLID_19_" d="M29.041,34h4.482a2.219,2.219,0,0,1,2.241,2.241v4.482a2.219,2.219,0,0,1-2.241,2.241H29.041A2.219,2.219,0,0,1,26.8,40.723V36.241A2.219,2.219,0,0,1,29.041,34Z" transform="translate(-0.829 -3.525)" fill="#9ec645" fill-rule="evenodd"/>
    <path id="XMLID_18_" d="M44.041,34h4.482a2.219,2.219,0,0,1,2.241,2.241v4.482a2.219,2.219,0,0,1-2.241,2.241H44.041A2.219,2.219,0,0,1,41.8,40.723V36.241A2.219,2.219,0,0,1,44.041,34Z" transform="translate(-2.384 -3.525)" fill="#c8c475" fill-rule="evenodd"/>
    <path id="XMLID_17_" d="M59.041,34h4.482a2.219,2.219,0,0,1,2.241,2.241v4.482a2.219,2.219,0,0,1-2.241,2.241H59.041A2.219,2.219,0,0,1,56.8,40.723V36.241A2.219,2.219,0,0,1,59.041,34Z" transform="translate(-3.939 -3.525)" fill="#e5a456" fill-rule="evenodd"/>
    <path id="XMLID_16_" d="M29.041,48h4.482a2.219,2.219,0,0,1,2.241,2.241v4.482a2.219,2.219,0,0,1-2.241,2.241H29.041A2.219,2.219,0,0,1,26.8,54.723V50.241A2.219,2.219,0,0,1,29.041,48Z" transform="translate(-0.829 -4.976)" fill="#c5a86c" fill-rule="evenodd"/>
    <path id="XMLID_15_" d="M44.041,48h4.482a2.219,2.219,0,0,1,2.241,2.241v4.482a2.219,2.219,0,0,1-2.241,2.241H44.041A2.219,2.219,0,0,1,41.8,54.723V50.241A2.219,2.219,0,0,1,44.041,48Z" transform="translate(-2.384 -4.976)" fill="#bb639e" fill-rule="evenodd"/>
    <path id="XMLID_14_" d="M59.041,48h4.482a2.219,2.219,0,0,1,2.241,2.241v4.482a2.219,2.219,0,0,1-2.241,2.241H59.041A2.219,2.219,0,0,1,56.8,54.723V50.241A2.219,2.219,0,0,1,59.041,48Z" transform="translate(-3.939 -4.976)" fill="#c18d63" fill-rule="evenodd"/>
    <path id="XMLID_13_" d="M28.593,14H60.861a1.8,1.8,0,0,1,1.793,1.793h0a1.8,1.8,0,0,1-1.793,1.793H28.593A1.8,1.8,0,0,1,26.8,15.793h0A1.8,1.8,0,0,1,28.593,14Z" transform="translate(-0.829 -1.451)" fill="#a1bbae" fill-rule="evenodd"/>
    <ellipse id="XMLID_12_" cx="2" cy="1.5" rx="2" ry="1.5" transform="translate(48.8 56)" fill="#c3cacb"/>
    <ellipse id="XMLID_11_" cx="2" cy="1.5" rx="2" ry="1.5" transform="translate(41.8 56)" fill="#c3cacb"/>
    <ellipse id="XMLID_10_" cx="2" cy="1.5" rx="2" ry="1.5" transform="translate(34.8 56)" fill="#2b2d2d"/>
    <path id="XMLID_9_" d="M29.041,70h4.482a2.219,2.219,0,0,1,2.241,2.241v4.482a2.219,2.219,0,0,1-2.241,2.241H29.041A2.219,2.219,0,0,1,26.8,76.723V72.241A2.219,2.219,0,0,1,29.041,70Z" transform="translate(-0.829 -7.256)" fill="#9ec645" fill-rule="evenodd"/>
    <path id="XMLID_8_" d="M44.041,70h4.482a2.219,2.219,0,0,1,2.241,2.241v4.482a2.219,2.219,0,0,1-2.241,2.241H44.041A2.219,2.219,0,0,1,41.8,76.723V72.241A2.219,2.219,0,0,1,44.041,70Z" transform="translate(-2.384 -7.256)" fill="#e18882" fill-rule="evenodd"/>
    <path id="XMLID_7_" d="M59.041,70h4.482a2.219,2.219,0,0,1,2.241,2.241v4.482a2.219,2.219,0,0,1-2.241,2.241H59.041A2.219,2.219,0,0,1,56.8,76.723V72.241A2.219,2.219,0,0,1,59.041,70Z" transform="translate(-3.939 -7.256)" fill="#a1bbae" fill-rule="evenodd"/>
    <path id="XMLID_6_" d="M31.593,26.585A1.793,1.793,0,1,0,29.8,24.793,1.8,1.8,0,0,0,31.593,26.585Z" transform="translate(-1.14 -2.384)" fill="#7f8272" fill-rule="evenodd"/>
    <path id="XMLID_5_" d="M44.593,51h3.585a1.8,1.8,0,0,1,1.793,1.793h0a1.8,1.8,0,0,1-1.793,1.793H44.593A1.8,1.8,0,0,1,42.8,52.793h0A1.8,1.8,0,0,1,44.593,51Z" transform="translate(-2.488 -5.287)" fill="#db3d57" fill-rule="evenodd"/>
    <path id="XMLID_4_" d="M61.385,42.171A3.585,3.585,0,1,0,57.8,38.585,3.6,3.6,0,0,0,61.385,42.171Z" transform="translate(-4.043 -3.628)" fill="#ebc32e" fill-rule="evenodd"/>
    <path id="XMLID_3_" d="M31.593,76.585A1.793,1.793,0,1,0,29.8,74.793,1.8,1.8,0,0,0,31.593,76.585Z" transform="translate(-1.14 -7.567)" fill="#ebc32e" fill-rule="evenodd"/>
  </g>
</svg>
