<svg id="Group_29" data-name="Group 29" xmlns="http://www.w3.org/2000/svg" viewBox="0 0 83.728 68.683">
  <path id="Path_297" data-name="Path 297" d="M81.055,5.313H4.673A3.673,3.673,0,0,0,1,8.986v47.57a3.673,3.673,0,0,0,3.673,3.673H81.055a3.673,3.673,0,0,0,3.673-3.673V8.986A3.673,3.673,0,0,0,81.055,5.313Z" transform="translate(-1 -5.313)" fill="#e7e3e6"/>
  <rect id="Rectangle_102" data-name="Rectangle 102" width="74.443" height="41.426" transform="translate(4.643 4.4)" fill="#656766"/>
  <g id="Group_11" data-name="Group 11" transform="translate(41.862 4.4)">
    <rect id="Rectangle_103" data-name="Rectangle 103" width="37.223" height="20.713" fill="#806292"/>
  </g>
  <g id="Group_12" data-name="Group 12" transform="translate(41.862 25.113)">
    <rect id="Rectangle_104" data-name="Rectangle 104" width="37.223" height="20.713" fill="#4e4c4d"/>
  </g>
  <g id="Group_13" data-name="Group 13" transform="translate(4.643 4.4)">
    <rect id="Rectangle_105" data-name="Rectangle 105" width="37.223" height="20.713" transform="translate(0)" fill="#656766"/>
  </g>
  <g id="Group_14" data-name="Group 14" transform="translate(4.643 25.113)">
    <rect id="Rectangle_106" data-name="Rectangle 106" width="37.223" height="20.713" transform="translate(0)" fill="#656766"/>
  </g>
  <g id="Group_15" data-name="Group 15" transform="translate(64.38 11.993)">
    <path id="Path_298" data-name="Path 298" d="M41.115,14.506l-2.133-2.133a.629.629,0,1,0-.889.889l1.689,1.689-1.689,1.689a.629.629,0,1,0,.889.889l2.133-2.133A.629.629,0,0,0,41.115,14.506Z" transform="translate(-37.908 -12.188)" fill="#fff"/>
  </g>
  <g id="Group_16" data-name="Group 16" transform="translate(53.594 11.994)">
    <path id="Path_299" data-name="Path 299" d="M34.932,12.372a.629.629,0,0,0-.889,0l-2.134,2.133a.629.629,0,0,0,0,.889l2.134,2.133a.629.629,0,1,0,.889-.889l-1.69-1.689,1.69-1.689A.629.629,0,0,0,34.932,12.372Z" transform="translate(-31.725 -12.188)" fill="#fff"/>
  </g>
  <g id="Group_17" data-name="Group 17" transform="translate(57.977 10.075)">
    <path id="Path_300" data-name="Path 300" d="M39.308,11.157a.632.632,0,0,0-.847.273l-4.155,8.1a.629.629,0,0,0,1.12.575L39.581,12A.63.63,0,0,0,39.308,11.157Z" transform="translate(-34.237 -11.089)" fill="#fff"/>
  </g>
  <g id="Group_18" data-name="Group 18" transform="translate(50.273 28.548)">
    <path id="Path_301" data-name="Path 301" d="M41.682,22.936H30.45a.629.629,0,1,1,0-1.258H41.682a.629.629,0,1,1,0,1.258Z" transform="translate(-29.821 -21.678)" fill="#85bd57"/>
  </g>
  <g id="Group_19" data-name="Group 19" transform="translate(64.799 28.548)">
    <path id="Path_302" data-name="Path 302" d="M43.812,22.936H38.777a.629.629,0,0,1,0-1.258h5.036a.629.629,0,1,1,0,1.258Z" transform="translate(-38.148 -21.678)" fill="#e7e3e6"/>
  </g>
  <g id="Group_20" data-name="Group 20" transform="translate(50.273 31.694)">
    <path id="Path_303" data-name="Path 303" d="M35.627,24.74H30.45a.629.629,0,0,1,0-1.258h5.177a.629.629,0,1,1,0,1.258Z" transform="translate(-29.821 -23.482)" fill="#e7e3e6"/>
  </g>
  <g id="Group_21" data-name="Group 21" transform="translate(58.742 31.694)">
    <path id="Path_304" data-name="Path 304" d="M46.4,24.74H35.3a.629.629,0,0,1,0-1.258H46.4a.629.629,0,1,1,0,1.258Z" transform="translate(-34.676 -23.482)" fill="#53b1e2"/>
  </g>
  <g id="Group_22" data-name="Group 22" transform="translate(50.273 34.841)">
    <path id="Path_305" data-name="Path 305" d="M32.334,26.544H30.45a.629.629,0,1,1,0-1.258h1.885a.629.629,0,1,1,0,1.258Z" transform="translate(-29.821 -25.286)" fill="#ba8c5c"/>
  </g>
  <g id="Group_23" data-name="Group 23" transform="translate(55.45 34.841)">
    <path id="Path_306" data-name="Path 306" d="M47.8,26.544H33.417a.629.629,0,0,1,0-1.258H47.8a.629.629,0,1,1,0,1.258Z" transform="translate(-32.789 -25.286)" fill="#e7e3e6"/>
  </g>
  <g id="Group_24" data-name="Group 24" transform="translate(50.273 37.987)">
    <path id="Path_307" data-name="Path 307" d="M41.172,28.347H30.45a.629.629,0,0,1,0-1.258H41.172a.629.629,0,0,1,0,1.258Z" transform="translate(-29.821 -27.09)" fill="#ffc966"/>
  </g>
  <g id="Group_25" data-name="Group 25" transform="translate(64.288 37.987)">
    <path id="Path_308" data-name="Path 308" d="M44.03,28.347H38.484a.629.629,0,0,1,0-1.258H44.03a.629.629,0,1,1,0,1.258Z" transform="translate(-37.855 -27.09)" fill="#9a7ca8"/>
  </g>
  <g id="Group_26" data-name="Group 26" transform="translate(50.273 41.132)">
    <path id="Path_309" data-name="Path 309" d="M36.066,30.15H30.45a.629.629,0,1,1,0-1.258h5.617a.629.629,0,1,1,0,1.258Z" transform="translate(-29.821 -28.893)" fill="#e7e3e6"/>
  </g>
  <g id="Group_27" data-name="Group 27" transform="translate(59.182 41.132)">
    <path id="Path_310" data-name="Path 310" d="M46.209,30.15H35.557a.629.629,0,0,1,0-1.258H46.209a.629.629,0,1,1,0,1.258Z" transform="translate(-34.928 -28.893)" fill="#e7e3e6"/>
  </g>
  <g id="Group_28" data-name="Group 28" transform="translate(6.277 7.13)">
    <path id="Path_311" data-name="Path 311" d="M9.462,9.4H6.714A2.116,2.116,0,0,0,4.6,11.516V43.249a2.116,2.116,0,0,0,2.116,2.116H9.462a2.116,2.116,0,0,0,2.116-2.116V11.516A2.116,2.116,0,0,0,9.462,9.4Z" transform="translate(-4.599 -9.4)" fill="#4e4c4d"/>
    <path id="Path_312" data-name="Path 312" d="M8.63,10.28H6.36a.964.964,0,0,0-.964.964v2.27a.964.964,0,0,0,.964.964H8.63a.964.964,0,0,0,.964-.964v-2.27A.964.964,0,0,0,8.63,10.28Z" transform="translate(-4.005 -8.746)" fill="#d2d2d2"/>
    <path id="Path_313" data-name="Path 313" d="M8.63,13.57H6.36a.964.964,0,0,0-.964.964V16.8a.964.964,0,0,0,.964.964H8.63a.964.964,0,0,0,.964-.964v-2.27A.964.964,0,0,0,8.63,13.57Z" transform="translate(-4.005 -6.296)" fill="#d2d2d2"/>
    <path id="Path_314" data-name="Path 314" d="M8.63,16.861H6.36a.964.964,0,0,0-.964.964v2.27a.964.964,0,0,0,.964.964H8.63a.964.964,0,0,0,.964-.964v-2.27A.964.964,0,0,0,8.63,16.861Z" transform="translate(-4.005 -3.847)" fill="#d2d2d2"/>
    <path id="Path_315" data-name="Path 315" d="M8.63,20.151H6.36a.964.964,0,0,0-.964.964v2.27a.964.964,0,0,0,.964.964H8.63a.964.964,0,0,0,.964-.964v-2.27A.964.964,0,0,0,8.63,20.151Z" transform="translate(-4.005 -1.398)" fill="#d2d2d2"/>
    <path id="Path_316" data-name="Path 316" d="M8.63,23.442H6.36a.964.964,0,0,0-.964.964v2.27a.964.964,0,0,0,.964.964H8.63a.964.964,0,0,0,.964-.964v-2.27A.964.964,0,0,0,8.63,23.442Z" transform="translate(-4.005 1.052)" fill="#d2d2d2"/>
    <path id="Path_317" data-name="Path 317" d="M8.63,26.733H6.36A.964.964,0,0,0,5.4,27.7v2.27a.964.964,0,0,0,.964.964H8.63a.964.964,0,0,0,.964-.964V27.7A.964.964,0,0,0,8.63,26.733Z" transform="translate(-4.005 3.501)" fill="#d2d2d2"/>
  </g>
  <path id="Path_318" data-name="Path 318" d="M23.925,33.576l2.682-2.682a.763.763,0,0,0,0-1.079l-3.062-3.062,2.763-1.144a.942.942,0,0,0-.148-1.787L15.5,21.353a.942.942,0,0,0-1.13,1.13l2.47,10.663a.942.942,0,0,0,1.787.149l1.155-2.78,3.062,3.062A.763.763,0,0,0,23.925,33.576Z" transform="translate(8.936 6.608)" fill="#ec6e62"/>
  <rect id="Rectangle_107" data-name="Rectangle 107" width="31.314" height="7.568" transform="translate(26.207 54.916)" fill="#d2d2d2"/>
  <path id="Path_319" data-name="Path 319" d="M51.328,41.134H16.275a3.1,3.1,0,0,0-3.1,3.1h0a3.1,3.1,0,0,0,3.1,3.1H51.328a3.1,3.1,0,0,0,3.1-3.1h0A3.1,3.1,0,0,0,51.328,41.134Z" transform="translate(8.063 21.351)" fill="#e7e3e6"/>
</svg>
