<svg xmlns="http://www.w3.org/2000/svg" width="90.246" height="90.271" viewBox="0 0 90.246 90.271">
  <g id="Group_40" data-name="Group 40" transform="translate(-181.749 -31.365)">
    <g id="Group_38" data-name="Group 38" transform="translate(184.199 -994.565)">
      <g id="Group_36" data-name="Group 36" transform="matrix(0.916, -0.399, 0.398, 0.917, -2.45, 1053.285)">
        <path id="Path_327" data-name="Path 327" d="M68.639,34.319A34.319,34.319,0,1,1,34.319,0,34.319,34.319,0,0,1,68.639,34.319Z" transform="translate(0.001 0)" fill="#3498db"/>
        <path id="Path_328" data-name="Path 328" d="M34.321,0A34.527,34.527,0,0,0,24.083,1.56c.275.434.352.458.682.975,1.665,2.61,1.895,2.869,2.34,2.925.267.033.981.084,1.658.1h1.267l.877-2.145.88-2.145,3.12-.975c.312-.1.381-.1.68-.2C35.163.082,34.748,0,34.321,0Zm7.02.78a7.993,7.993,0,0,0,1.17,2.047c.917,1.373,1.3,2.01,1.463,1.95a33.385,33.385,0,0,0,3.12-2.242A34.108,34.108,0,0,0,41.437.78C41.431.784,41.344.776,41.34.78ZM15.894,5.363A34.628,34.628,0,0,0,8,12.187,34.209,34.209,0,0,0,.489,28.666a17.737,17.737,0,0,1,1.95-.1c2.95,0,2.67-.128,3.705,1.367.577.833.6.83,1.462.877,1.033.053,1.022.019.488-1.657a9.441,9.441,0,0,1-.39-1.463c0-.2.584-.761,1.755-1.755,1.955-1.659,1.788-1.378,1.463-3.022-.067-.339.085-.628.683-1.268.711-.759.713-.731,1.462-.682h.78l.1-1.268a10.674,10.674,0,0,1,.1-1.365c.044-.043,1.99-1.229,4.29-2.535s4.271-2.419,4.387-2.535c.182-.181-.254-.8-2.827-3.9-1.656-1.994-3.027-3.7-3.12-3.8-.017-.019-.688-.149-.877-.195ZM52.356,7.215c-.119-.1-.415.116-.973.682l-.78.878.583.682c.34.4.814.924,1.073,1.17.571.542.593.679.1,1.658a1.988,1.988,0,0,0-.29.975c.059.163.421.2,1.56.195a8.017,8.017,0,0,0,1.657-.1,2.318,2.318,0,0,0,.29-1.072l.1-1.072-1.17-.878a3.608,3.608,0,0,1-1.56-1.95A5.187,5.187,0,0,0,52.356,7.215Zm-3.12,2.73a7.039,7.039,0,0,0-1.363,2.34,2.543,2.543,0,0,0,.78.878,3.67,3.67,0,0,0,.877.585,6.46,6.46,0,0,0,1.363-1.462c.094-.172-.109-.536-.68-1.268A4.925,4.925,0,0,0,49.236,9.945Zm10.043.878c.041.135.193.331.193.39a8.194,8.194,0,0,1-1.46,1.462c-1.223,1.1-1.373,1.272-2.047,1.365a3.375,3.375,0,0,0-1.953.975,8.453,8.453,0,0,0-1.267,1.17c-.031.1.246.508.587.878.711.771.768,1.011.293,1.852l-.393.585-1.167-.1c-.668-.024-1.554-.05-1.953-.1-.908-.108-.88-.083-.1,2.048,1.161,3.151,1.264,3.412,1.463,3.412a36.691,36.691,0,0,0,2.827-2.535,32.652,32.652,0,0,1,2.926-2.535,3.4,3.4,0,0,1,.583.195c.468.169.546.115,1.367-.585l.877-.682.877.585c2.006,1.377,2.253,1.668,2.437,2.535.287,1.34.465,1.95.587,1.95a12.11,12.11,0,0,0,1.56-2.145c.15-.286-.034-.457-1.17-2.047a13.11,13.11,0,0,1-1.267-2.047c0-.095.156-.277.29-.39.181-.15.505.134,1.173.877a34.579,34.579,0,0,0-5.266-7.117ZM62.4,22.035c-.2,0-.883,1-.78,1.17a1.4,1.4,0,0,0,.487.292,2.316,2.316,0,0,0,.587.2c.234.008.284-.069.193-.488-.153-.709-.349-1.172-.487-1.17ZM59.766,23.2l-2.533.195-2.537.293-4.68,4-4.583,3.9.1,3.9c.059,2.14.14,4,.193,4.1a14.782,14.782,0,0,0,1.56,1.56c.839.733,1.716,1.438,1.95,1.657.424.39.546.427,4.193.583l3.607.2,1.657.973c.88.571,1.616,1.133,1.66,1.17s-.212.268-.587.587l-.68.583,1.07,1.27c.593.7,1.367,1.688,1.757,2.143l.68.78v2.73a33.9,33.9,0,0,0,4.973-27.787,3.756,3.756,0,0,0-.583-.39,4.557,4.557,0,0,0-1.073.78,4.817,4.817,0,0,1-1.073.78c-.1,0-.945-.268-1.95-.585l-1.853-.585v-.78a1.517,1.517,0,0,0-.583-1.463ZM10.237,29.736c-.073.047-.1.312-.1.683,0,.649-.014.708.683,1.073.857.446,1,.521.877.193A6.609,6.609,0,0,0,10.237,29.736ZM6.63,32.076a3.684,3.684,0,0,0-.39,1.853,13.126,13.126,0,0,0,1.95.487,4.73,4.73,0,0,0,1.853.2c.261-.2.545-1.217.39-1.367A21.394,21.394,0,0,0,6.63,32.076Zm-4,1.17-1.073.587a6.488,6.488,0,0,1-1.463.68.507.507,0,0,1-.1,0A34.4,34.4,0,0,0,.39,38.9l.683.39,1.072-.1H3.217L3.9,40.559a7.191,7.191,0,0,0,.877,1.56,10.492,10.492,0,0,0,1.95.1h1.56v1.27a2.859,2.859,0,0,1-.682,2.34,4.022,4.022,0,0,0-.682,1.46c.007.212.82,2.281,1.755,4.583l1.658,4.1,1.658.877c1.229.6,1.657.855,1.657,1.07,0,.075-.4,2.19-.585,3.316a33.953,33.953,0,0,0,10.92,5.85c3.583-3.838,7-7.56,7.508-8.093l.78-.78.193-2.047c.15-1.154.29-2.215.293-2.34a8.1,8.1,0,0,1,1.073-1.367,9.131,9.131,0,0,0,.973-1.267c0-.053-1.551-1.117-3.413-2.34l-3.411-2.24h-1.17c-.8,0-1.22-.05-1.365-.2a4.872,4.872,0,0,1-.39-1.657,11.4,11.4,0,0,0-.292-1.66A7.532,7.532,0,0,0,23.01,43a10.206,10.206,0,0,1-1.95-.1,4.31,4.31,0,0,1-.293-1.56,5.131,5.131,0,0,0-.292-1.463,13.19,13.19,0,0,0-2.438-.193A8.547,8.547,0,0,1,14.43,39.1l-1.267-.487-1.658.78-1.755.683H7.9c-2.117,0-1.95.231-2.242-1.66a4.386,4.386,0,0,0-.292-1.267,4.729,4.729,0,0,0-.975-.193l-.78-.1.1-.583a13.524,13.524,0,0,1,.1-1.463l.1-.877-.585-.39-.682-.293Zm9.75.88a1.833,1.833,0,0,0-.2.68l-.1.487,3.023,1.173c3.075,1.1,3.613,1.164,4.095.68.184-.184.151-.2-.292-.39-.284-.119-1.791-.87-3.412-1.56A12.058,12.058,0,0,0,12.382,34.126Z" transform="translate(0 0)" fill="#2ecc71"/>
      </g>
      <g id="Group_37" data-name="Group 37" transform="translate(8.314 1036.758)">
        <path id="Path_329" data-name="Path 329" d="M127.051-15A34.317,34.317,0,0,0,95.839,32.969a34.431,34.431,0,0,0,31.305,20.67,68.385,68.385,0,0,1-9.173-34.319A68.383,68.383,0,0,1,127.145-15Z" transform="translate(-92.994 15)" fill="#2980b9"/>
        <path id="Path_330" data-name="Path 330" d="M126.355-14.969a33.677,33.677,0,0,0-5.865.587c0,.006-.094.09-.094.1a10.538,10.538,0,0,0,1.966,1.367c1.373.892,1.9,1.285,2.028,1.167a29.869,29.869,0,0,0,1.966-3.217Zm-11.513,2.34c-.4.156-.777.218-1.17.39a34.485,34.485,0,0,0-8.776,5.46c.427.29.468.34.977.683,2.568,1.728,2.886,1.881,3.316,1.757.256-.078.933-.328,1.56-.587l1.167-.487v-2.34l-.1-2.34,2.537-2.147c.25-.212.246-.184.487-.39ZM99.829-.149c-.025-.009-.686.162-.88.2a34.544,34.544,0,0,0-4.58,9.359,34.283,34.283,0,0,0-.293,18.134,18.581,18.581,0,0,1,1.753-.877c2.7-1.179,2.356-1.153,3.9-.195.861.534.942.5,1.757.195.967-.362.864-.432-.293-1.755a7.353,7.353,0,0,1-.877-1.17c-.081-.184.2-.864.877-2.242,1.129-2.3,1.148-2.035.2-3.413-.2-.284-.2-.638.1-1.463.349-.98.365-.915,1.07-1.17l.683-.292-.39-1.17a13.436,13.436,0,0,1-.487-1.365c.022-.057,1.335-1.883,2.927-4s2.961-3.942,3.02-4.1c.1-.238-.6-.623-4.193-2.437C101.8.926,99.954-.093,99.829-.149Zm3.607,24.765c-.05.07.047.343.193.682.259.595.29.627,1.073.682.964.067,1.123.054.877-.195A6.456,6.456,0,0,0,103.436,24.616Zm7.02,2.925a11.7,11.7,0,0,0-3.316.293,1.856,1.856,0,0,0,.1.683l.1.487,3.217-.195c3.26-.213,3.844-.34,4.1-.975.094-.241-.006-.2-.49-.195C113.85,27.641,112.215,27.525,110.455,27.541Zm-5.46.2a20.517,20.517,0,0,0-3.9.487,3.668,3.668,0,0,0,.39,1.852,10.733,10.733,0,0,0,1.95-.292,4.245,4.245,0,0,0,1.753-.585C105.348,28.909,105.2,27.81,105,27.736ZM116.9,29.881a12.39,12.39,0,0,0-2.352.78,8.337,8.337,0,0,1-3.51.877l-1.363.1L108.409,33l-1.27,1.267-1.753.78c-1.941.846-1.71.933-2.73-.682a3.354,3.354,0,0,0-.78-.975,3.96,3.96,0,0,0-.88.195l-.78.195-.193-.585a13.1,13.1,0,0,1-.487-1.365l-.2-.877-.78-.1h-.683l-.78.975a7.52,7.52,0,0,1-1.07,1.267c-.012.005-.081,0-.1,0A34.943,34.943,0,0,0,98.072,37h.78l.977-.488.973-.39,1.17.975a7.417,7.417,0,0,0,1.363,1.072,10.155,10.155,0,0,0,1.853-.682l1.463-.683.487,1.17a2.887,2.887,0,0,1,.293,2.437,4.032,4.032,0,0,0,0,1.658c.09.19,1.638,1.771,3.413,3.51l3.12,3.022,1.844.2c1.373.056,1.872.093,1.966.292.031.066.5,2.207.78,3.315a35.262,35.262,0,0,0,8.58,1.17,67.476,67.476,0,0,1-7.987-21.352c-.156.043-.468.2-.5.2-.156-.023-.468-.639-.874-1.365a4.646,4.646,0,0,0-.874-1.17Z" transform="translate(-92.984 15.066)" fill="#27ae60"/>
      </g>
    </g>
    <g id="Group_39" data-name="Group 39" transform="translate(-5 7)">
      <rect id="Rectangle_111" data-name="Rectangle 111" width="74" height="29" rx="4" transform="translate(194.872 84)" fill="#ffa853"/>
      <text id="www." transform="translate(231.872 104)" font-size="20" font-family="Tajawal-Bold, Tajawal" font-weight="700"><tspan x="-24" y="0">www.</tspan></text>
    </g>
  </g>
</svg>
