<svg xmlns="http://www.w3.org/2000/svg" width="77.383" height="77.382" viewBox="0 0 77.383 77.382">
  <g id="setting_icon" transform="translate(-22.306 -22.31)">
    <g id="g12" transform="translate(22.306 22.31)">
      <path id="path4" d="M61,22.31A38.691,38.691,0,1,1,22.306,61,38.679,38.679,0,0,1,61,22.31Z" transform="translate(-22.306 -22.31)" fill="#fd8469" fill-rule="evenodd"/>
      <path id="path6" d="M174.62,132.013c.112,1.28.168,2.561.168,3.9A38.674,38.674,0,0,1,136.82,174.6L113.55,152.388l.056-.166c-.391-.891-.78-1.782-1.17-2.729a2.118,2.118,0,0,1,.835-2.505c.5-.279,1.058-.612,1.559-.891a13.707,13.707,0,0,1-.055-2.616c-.111-.112-.168-.168-.279-.279a1.688,1.688,0,0,1-.446-.446,2.83,2.83,0,0,1-.444-.39,3.3,3.3,0,0,1-.446-.445,2.144,2.144,0,0,1-.724-2.45c.39-.891.779-1.782,1.114-2.672a2.068,2.068,0,0,1,2.394-1.169c.556.111,1.169.277,1.726.445a14.053,14.053,0,0,1,2.228-2.226c-.113-.612-.279-1.169-.446-1.782a2.037,2.037,0,0,1,1.225-2.338c.89-.389,1.781-.779,2.672-1.114a2.069,2.069,0,0,1,2.394.612,2.972,2.972,0,0,1,.445.391,3.287,3.287,0,0,1,.446.445,2.61,2.61,0,0,1,.39.39,1.69,1.69,0,0,1,.446.446h.111a16.427,16.427,0,0,1,2.338.111c.334-.557.613-1.058.946-1.559a1.992,1.992,0,0,1,2.507-.836c.889.335,1.78.725,2.67,1.114a1.817,1.817,0,0,1,.835.613,1.469,1.469,0,0,1,.445.39,1.676,1.676,0,0,1,.445.444,2.778,2.778,0,0,1,.446.391c.166.111.278.279.446.39.055.055.111.111.111.167a1.863,1.863,0,0,1,.057-2,7.849,7.849,0,0,0,.611-.836.932.932,0,0,1-.333-.333,1.318,1.318,0,0,1-.39-.39,1.652,1.652,0,0,1-.446-.446.993.993,0,0,1-.445-.389,1.53,1.53,0,0,1-.446-.389,3.927,3.927,0,0,1-1.224-1.894v-2.115a1.68,1.68,0,0,1,1.447-1.671l1.168-.167a8.043,8.043,0,0,1,.779-1.894c-.223-.277-.5-.611-.722-.89a1.839,1.839,0,0,1,.167-2.282c.5-.5,1-.946,1.5-1.447a1.7,1.7,0,0,1,2.228-.168c.334.223.611.446.946.668a11.448,11.448,0,0,1,1.894-.78l.166-1.168a1.733,1.733,0,0,1,1.67-1.447h2.116a1.735,1.735,0,0,1,1.391.724,1.488,1.488,0,0,1,.446.389c.167.112.279.278.445.39a3.521,3.521,0,0,1,.446.446,1.281,1.281,0,0,1,.389.39,1.649,1.649,0,0,1,.446.446,1.482,1.482,0,0,1,.446.39h0l.668-.446,2.173.112C160.425,119.6,169.555,126.947,174.62,132.013Z" transform="translate(-97.405 -97.219)" fill="#e4775f" fill-rule="evenodd"/>
      <path id="path8" d="M140.877,227.042c-.5-.335-1.057-.612-1.559-.947a14.49,14.49,0,0,0,0-3.117c.558-.333,1.059-.611,1.559-.946a2.029,2.029,0,0,0,.836-2.505h0l-1.114-2.672a2.076,2.076,0,0,0-2.395-1.225,15.625,15.625,0,0,1-1.725.446,16.925,16.925,0,0,0-2.228-2.228c.168-.555.279-1.169.445-1.725a2.135,2.135,0,0,0-1.169-2.4l-2.728-1.113a2.117,2.117,0,0,0-2.5.836c-.279.5-.613,1.058-.891,1.559a15.1,15.1,0,0,0-3.173,0c-.336-.5-.613-1.058-.947-1.559a2.1,2.1,0,0,0-2.506-.836l-2.672,1.113a2.107,2.107,0,0,0-1.224,2.4c.167.556.334,1.169.5,1.725a14.075,14.075,0,0,0-2.227,2.228,16.8,16.8,0,0,1-1.781-.446,2.008,2.008,0,0,0-2.338,1.225l-1.113,2.672a2.007,2.007,0,0,0,.779,2.505c.556.335,1.058.613,1.558.946a14.684,14.684,0,0,0,0,3.117c-.5.335-1,.612-1.558.947a2.028,2.028,0,0,0-.779,2.505l1.113,2.671a2.006,2.006,0,0,0,2.338,1.225c.557-.167,1.169-.278,1.726-.445a14.447,14.447,0,0,0,2.283,2.227c-.167.556-.334,1.168-.5,1.725a2.073,2.073,0,0,0,1.224,2.394l2.672,1.113a1.9,1.9,0,0,0,.779.111,1.918,1.918,0,0,0,1.726-.947c.334-.5.611-1.059.947-1.559a14.994,14.994,0,0,0,3.173,0c.278.5.612,1.058.891,1.559a2.049,2.049,0,0,0,2.5.835l2.728-1.113a2.1,2.1,0,0,0,1.169-2.394c-.111-.557-.278-1.169-.445-1.725A14.12,14.12,0,0,0,136.48,233c.556.167,1.169.278,1.725.445a2.074,2.074,0,0,0,2.395-1.225l1.114-2.671A2.05,2.05,0,0,0,140.877,227.042Zm-8.239-5.345h0A7.387,7.387,0,1,0,119,227.376a7.266,7.266,0,0,0,6.792,4.565,7.151,7.151,0,0,0,2.84-.558,7.412,7.412,0,0,0,4.009-9.686Z" transform="translate(-95.283 -177.662)" fill="#fff" fill-rule="evenodd"/>
      <path id="path10" d="M265.95,117.639a4.4,4.4,0,0,0,0,8.8,4.4,4.4,0,1,0,0-8.8Zm10.855,1.615a7.571,7.571,0,0,0-1.112-.111,19.277,19.277,0,0,0-.779-1.893c.222-.334.446-.613.668-.946a1.7,1.7,0,0,0-.168-2.228l-1.5-1.5a1.694,1.694,0,0,0-2.226-.167c-.278.222-.611.445-.947.725a7.5,7.5,0,0,0-1.838-.78q-.083-.585-.167-1.169a1.737,1.737,0,0,0-1.726-1.447h-2.115a1.679,1.679,0,0,0-1.67,1.447q-.084.584-.168,1.169a7.916,7.916,0,0,0-1.893.78,5.982,5.982,0,0,0-.947-.725,1.7,1.7,0,0,0-2.227.167l-1.5,1.5a1.773,1.773,0,0,0-.168,2.228c.224.333.5.611.725.946a7.966,7.966,0,0,0-.781,1.893,8.385,8.385,0,0,0-1.168.111,1.781,1.781,0,0,0-1.447,1.725v2.116a1.781,1.781,0,0,0,1.447,1.726,8.385,8.385,0,0,0,1.168.112,7.979,7.979,0,0,0,.781,1.892c-.223.333-.5.613-.725.947a1.771,1.771,0,0,0,.168,2.227l1.5,1.5a1.7,1.7,0,0,0,2.227.167,6.175,6.175,0,0,0,.947-.724,7.936,7.936,0,0,0,1.893.78q.084.584.168,1.17a1.68,1.68,0,0,0,1.67,1.447h2.115a1.737,1.737,0,0,0,1.726-1.447q.084-.585.167-1.17a7.536,7.536,0,0,0,1.838-.78c.335.278.668.5.947.724a1.7,1.7,0,0,0,2.226-.167l1.5-1.5a1.7,1.7,0,0,0,.168-2.227c-.222-.333-.446-.613-.668-.947a19.43,19.43,0,0,0,.779-1.892,7.572,7.572,0,0,0,1.112-.112,1.781,1.781,0,0,0,1.448-1.726v-2.116A1.781,1.781,0,0,0,276.805,119.254Z" transform="translate(-215.345 -95.26)" fill="#324a5e" fill-rule="evenodd"/>
    </g>
  </g>
</svg>
