<svg width="24" height="24" viewBox="0 0 24 24" fill="none" xmlns="http://www.w3.org/2000/svg">
<path d="M8.49243 14.07L10.1184 9.87H10.7784L12.3924 14.07H11.7024L10.7424 11.538C10.7304 11.51 10.7064 11.442 10.6704 11.334C10.6384 11.226 10.6004 11.106 10.5564 10.974C10.5124 10.842 10.4724 10.722 10.4364 10.614C10.4004 10.502 10.3764 10.43 10.3644 10.398L10.5024 10.392C10.4784 10.46 10.4484 10.546 10.4124 10.65C10.3804 10.754 10.3444 10.864 10.3044 10.98C10.2684 11.096 10.2324 11.206 10.1964 11.31C10.1604 11.41 10.1304 11.494 10.1064 11.562L9.15243 14.07H8.49243ZM9.21243 13.026L9.45243 12.402H11.3604L11.6364 13.026H9.21243Z" fill="white"/>
<path d="M14.0496 14.13C13.7536 14.13 13.4956 14.062 13.2756 13.926C13.0596 13.79 12.8556 13.562 12.6636 13.242L13.1676 12.924C13.2676 13.072 13.3656 13.194 13.4616 13.29C13.5616 13.382 13.6636 13.45 13.7676 13.494C13.8716 13.538 13.9816 13.56 14.0976 13.56C14.2376 13.56 14.3676 13.526 14.4876 13.458C14.6076 13.386 14.7036 13.288 14.7756 13.164C14.8476 13.04 14.8836 12.9 14.8836 12.744C14.8836 12.588 14.8556 12.456 14.7996 12.348C14.7436 12.236 14.6616 12.152 14.5536 12.096C14.4456 12.036 14.3176 12.006 14.1696 12.006C14.1016 12.006 14.0296 12.014 13.9536 12.03C13.8816 12.042 13.8036 12.062 13.7196 12.09C13.6356 12.114 13.5436 12.146 13.4436 12.186L13.2636 11.712L14.5596 10.284L14.6856 10.47H12.8976V9.87H15.3036L15.4236 10.11L14.0496 11.634L13.8996 11.478C13.9316 11.462 13.9836 11.448 14.0556 11.436C14.1316 11.42 14.1936 11.412 14.2416 11.412C14.4176 11.412 14.5816 11.446 14.7336 11.514C14.8896 11.578 15.0236 11.67 15.1356 11.79C15.2516 11.906 15.3416 12.044 15.4056 12.204C15.4736 12.36 15.5076 12.528 15.5076 12.708C15.5076 12.98 15.4416 13.224 15.3096 13.44C15.1816 13.652 15.0076 13.82 14.7876 13.944C14.5676 14.068 14.3216 14.13 14.0496 14.13Z" fill="white"/>
<path d="M20.5 23.5H3.5V0.5H17.487L20.5 3.442V23.5Z" stroke="white" stroke-linecap="round" stroke-linejoin="round"/>
</svg>
