<svg width="24" height="24" viewBox="0 0 24 24" fill="none" xmlns="http://www.w3.org/2000/svg">
<g clip-path="url(#clip0_102_4767)">
<path d="M20.5 23.5H3.5V0.5H17.487L20.5 3.442V23.5Z" stroke="white" stroke-linecap="round" stroke-linejoin="round"/>
<path d="M8.24048 14.1L9.86648 9.90002H10.5265L12.1405 14.1H11.4505L10.4905 11.568C10.4785 11.54 10.4545 11.472 10.4185 11.364C10.3865 11.256 10.3485 11.136 10.3045 11.004C10.2605 10.872 10.2205 10.752 10.1845 10.644C10.1485 10.532 10.1245 10.46 10.1125 10.428L10.2505 10.422C10.2265 10.49 10.1965 10.576 10.1605 10.68C10.1285 10.784 10.0925 10.894 10.0525 11.01C10.0165 11.126 9.98048 11.236 9.94448 11.34C9.90848 11.44 9.87848 11.524 9.85448 11.592L8.90048 14.1H8.24048ZM8.96048 13.056L9.20048 12.432H11.1085L11.3845 13.056H8.96048Z" fill="white"/>
<path d="M14.4037 14.1V10.716L14.5537 10.752L13.1737 12.438L13.1497 12.366H15.7597V12.96H12.7477L12.4717 12.42L14.5297 9.90002H15.0277V14.1H14.4037Z" fill="white"/>
</g>
<defs>
<clipPath id="clip0_102_4767">
<rect width="24" height="24" fill="white"/>
</clipPath>
</defs>
</svg>
