<svg width="24" height="24" viewBox="0 0 24 24" fill="none" xmlns="http://www.w3.org/2000/svg">
<g clip-path="url(#clip0_102_4769)">
<path d="M20.5 23.5H3.5V0.5H17.487L20.5 3.442V23.5Z" stroke="white" stroke-linecap="round" stroke-linejoin="round"/>
<path d="M8.45044 14.079L10.0764 9.87903H10.7364L12.3504 14.079H11.6604L10.7004 11.547C10.6884 11.519 10.6644 11.451 10.6284 11.343C10.5964 11.235 10.5584 11.115 10.5144 10.983C10.4704 10.851 10.4304 10.731 10.3944 10.623C10.3584 10.511 10.3344 10.439 10.3224 10.407L10.4604 10.401C10.4364 10.469 10.4064 10.555 10.3704 10.659C10.3384 10.763 10.3024 10.873 10.2624 10.989C10.2264 11.105 10.1904 11.215 10.1544 11.319C10.1184 11.419 10.0884 11.503 10.0644 11.571L9.11044 14.079H8.45044ZM9.17044 13.035L9.41044 12.411H11.3184L11.5944 13.035H9.17044Z" fill="white"/>
<path d="M14.0436 14.121C13.7676 14.121 13.5176 14.059 13.2936 13.935C13.0696 13.807 12.8836 13.625 12.7356 13.389L13.0956 12.987C13.2836 13.195 13.4476 13.337 13.5876 13.413C13.7276 13.489 13.8796 13.527 14.0436 13.527C14.2076 13.527 14.3556 13.491 14.4876 13.419C14.6196 13.347 14.7236 13.249 14.7996 13.125C14.8796 13.001 14.9196 12.863 14.9196 12.711C14.9196 12.551 14.8816 12.409 14.8056 12.285C14.7336 12.157 14.6356 12.057 14.5116 11.985C14.3876 11.909 14.2476 11.871 14.0916 11.871C14.0156 11.871 13.9436 11.877 13.8756 11.889C13.8076 11.897 13.7256 11.919 13.6296 11.955C13.5336 11.991 13.4076 12.047 13.2516 12.123L12.9096 11.661L13.1556 9.87903H15.4236V10.479H13.5636L13.6896 10.365L13.4916 11.697L13.3416 11.523C13.3816 11.483 13.4496 11.445 13.5456 11.409C13.6416 11.369 13.7476 11.337 13.8636 11.313C13.9836 11.285 14.0976 11.271 14.2056 11.271C14.4616 11.271 14.6896 11.331 14.8896 11.451C15.0936 11.567 15.2536 11.729 15.3696 11.937C15.4896 12.145 15.5496 12.383 15.5496 12.651C15.5496 12.927 15.4836 13.177 15.3516 13.401C15.2196 13.621 15.0396 13.797 14.8116 13.929C14.5836 14.057 14.3276 14.121 14.0436 14.121Z" fill="white"/>
</g>
<defs>
<clipPath id="clip0_102_4769">
<rect width="24" height="24" fill="white"/>
</clipPath>
</defs>
</svg>
