<svg width="24" height="24" viewBox="0 0 24 24" fill="none" xmlns="http://www.w3.org/2000/svg">
<path d="M8.72803 14.079V9.87903H10.48C10.748 9.87903 10.974 9.91903 11.158 9.99903C11.342 10.079 11.48 10.199 11.572 10.359C11.668 10.515 11.716 10.707 11.716 10.935C11.716 11.163 11.652 11.357 11.524 11.517C11.4 11.677 11.226 11.787 11.002 11.847V11.727C11.19 11.767 11.354 11.839 11.494 11.943C11.634 12.043 11.742 12.169 11.818 12.321C11.898 12.473 11.938 12.647 11.938 12.843C11.938 13.043 11.906 13.221 11.842 13.377C11.782 13.529 11.69 13.657 11.566 13.761C11.446 13.865 11.3 13.945 11.128 14.001C10.956 14.053 10.76 14.079 10.54 14.079H8.72803ZM9.37603 13.455H10.504C10.748 13.455 10.938 13.401 11.074 13.293C11.21 13.185 11.278 13.031 11.278 12.831C11.278 12.707 11.244 12.601 11.176 12.513C11.112 12.425 11.02 12.359 10.9 12.315C10.78 12.267 10.638 12.243 10.474 12.243H9.37603V13.455ZM9.37603 11.619H10.444C10.564 11.619 10.67 11.595 10.762 11.547C10.858 11.499 10.932 11.433 10.984 11.349C11.04 11.265 11.068 11.169 11.068 11.061C11.068 10.881 11.008 10.743 10.888 10.647C10.768 10.551 10.596 10.503 10.372 10.503H9.37603V11.619Z" fill="white"/>
<path d="M13.766 14.121C13.49 14.121 13.24 14.059 13.016 13.935C12.792 13.807 12.606 13.625 12.458 13.389L12.818 12.987C13.006 13.195 13.17 13.337 13.31 13.413C13.45 13.489 13.602 13.527 13.766 13.527C13.93 13.527 14.078 13.491 14.21 13.419C14.342 13.347 14.446 13.249 14.522 13.125C14.602 13.001 14.642 12.863 14.642 12.711C14.642 12.551 14.604 12.409 14.528 12.285C14.456 12.157 14.358 12.057 14.234 11.985C14.11 11.909 13.97 11.871 13.814 11.871C13.738 11.871 13.666 11.877 13.598 11.889C13.53 11.897 13.448 11.919 13.352 11.955C13.256 11.991 13.13 12.047 12.974 12.123L12.632 11.661L12.878 9.87903H15.146V10.479H13.286L13.412 10.365L13.214 11.697L13.064 11.523C13.104 11.483 13.172 11.445 13.268 11.409C13.364 11.369 13.47 11.337 13.586 11.313C13.706 11.285 13.82 11.271 13.928 11.271C14.184 11.271 14.412 11.331 14.612 11.451C14.816 11.567 14.976 11.729 15.092 11.937C15.212 12.145 15.272 12.383 15.272 12.651C15.272 12.927 15.206 13.177 15.074 13.401C14.942 13.621 14.762 13.797 14.534 13.929C14.306 14.057 14.05 14.121 13.766 14.121Z" fill="white"/>
<path d="M20.5 23.5H3.5V0.5H17.487L20.5 3.442V23.5Z" stroke="white" stroke-linecap="round" stroke-linejoin="round"/>
</svg>
