<svg width="24" height="25" viewBox="0 0 24 25" fill="none" xmlns="http://www.w3.org/2000/svg">
<g clip-path="url(#clip0_64_2789)">
<path d="M18.9751 4.4211C19.3496 3.6099 19.7959 2.84669 20.2135 2.04509C20.5207 1.46428 20.0359 0.768307 19.3831 0.864283C14.9527 1.49311 11.4488 4.64191 12.4903 8.66909L12.1015 9.76831H7.68553C7.03268 9.76831 6.49994 10.3011 6.49994 10.9539C6.49994 11.6067 7.03268 12.1395 7.68553 12.1395H8.21346V13.7235L4.24877 16.5363C3.90307 16.7811 3.69189 17.1843 3.69189 17.6115V22.0947C3.69189 23.0883 4.50307 23.8947 5.49189 23.8947H18.3942C19.3879 23.8947 20.1942 23.0883 20.1942 22.0947V17.6115C20.1942 17.1843 19.9879 16.7811 19.6423 16.5363L15.6775 13.7235L15.6871 12.1395H16.2055C16.8584 12.1395 17.3911 11.6067 17.3911 10.9539C17.3911 10.3011 16.8584 9.76831 16.2055 9.76831H14.0551L14.2951 9.1011C16.2296 8.68831 17.4823 7.63711 18.5815 5.52029C18.6342 5.41951 18.6342 5.2947 18.5863 5.19389C18.4663 4.94909 18.1975 5.00191 17.9335 4.9299C18.2119 4.75711 18.4663 4.6563 18.6967 4.62269C18.8167 4.60831 18.9223 4.53149 18.9751 4.4211ZM14.9671 12.1395L14.9623 13.5459H8.93346V12.1395H14.9671ZM19.4599 17.4771C19.4888 17.6115 19.4696 17.3667 19.4742 22.0947C19.4742 22.6899 18.9896 23.1747 18.3942 23.1747H5.49189C4.8967 23.1747 4.41189 22.6899 4.41189 22.0947C4.4215 17.3619 4.39748 17.6115 4.43111 17.4771H19.4599ZM16.8296 4.8675C16.7238 4.9587 16.6807 5.10269 16.7192 5.2323C16.7527 5.36669 16.8631 5.4675 17.0023 5.49149L17.7079 5.6211C16.7335 7.31549 15.6535 8.12191 13.9592 8.43389C13.8342 8.45789 13.7335 8.54428 13.6903 8.66428L13.3015 9.72509H12.8792L13.2103 8.8035C13.2342 8.7363 13.2342 8.65951 13.2151 8.5875C12.1784 4.88191 15.5671 2.13149 19.4838 1.5747C19.5559 1.56509 19.6135 1.64669 19.5799 1.71389C19.4407 1.97311 19.3015 2.2275 19.1623 2.48669C18.9079 2.95711 18.6438 3.44191 18.3992 3.9459C17.9142 4.0659 17.4007 4.3635 16.8296 4.8675Z" fill="white"/>
<path d="M14.0521 7.18638C14.2348 7.26837 14.4473 7.18643 14.5283 7.00591C14.9959 5.96716 15.6257 5.06809 16.4533 4.25809C16.5955 4.11888 16.5979 3.89106 16.4589 3.74903C16.3194 3.60606 16.0914 3.60419 15.9498 3.74341C15.0566 4.61763 14.3769 5.58841 13.8716 6.71059C13.7901 6.892 13.8709 7.10481 14.0521 7.18638Z" fill="white"/>
<path d="M7.62094 18.7092C7.56797 18.7645 7.54102 18.8315 7.54102 18.9089V21.7462C7.54102 21.824 7.5682 21.8906 7.62188 21.9445C7.67531 21.9979 7.74187 22.0251 7.81992 22.0251C7.89727 22.0251 7.9643 21.9979 8.01938 21.945C8.07422 21.892 8.10328 21.8236 8.10328 21.7462V18.9089C8.10328 18.8311 8.07539 18.7636 8.02031 18.7082C7.90898 18.5981 7.72781 18.599 7.62094 18.7092Z" fill="white"/>
<path d="M11.8957 18.7092C11.8425 18.7645 11.8155 18.8316 11.8155 18.9089V21.1612L10.1742 18.7917C10.0901 18.6816 9.98578 18.6253 9.86438 18.6253H9.80438C9.70148 18.6253 9.61289 18.6628 9.54141 18.7369C9.46992 18.8105 9.43359 18.8991 9.43359 19.0008V21.7462C9.43359 21.8241 9.46078 21.8906 9.51445 21.9445C9.62063 22.0509 9.80109 22.0514 9.91195 21.945C9.9668 21.892 9.99586 21.8236 9.99586 21.7462V19.4892L11.6463 21.8728C11.6803 21.9178 11.7239 21.9544 11.7755 21.982C11.8284 22.0106 11.8863 22.0251 11.9475 22.0251H12.0026C12.105 22.0251 12.1938 21.9886 12.2667 21.9173C12.3405 21.8451 12.378 21.7566 12.378 21.6544V18.9089C12.378 18.8306 12.3502 18.7631 12.2948 18.7083C12.1852 18.5991 12.0014 18.5986 11.8957 18.7092Z" fill="white"/>
<path d="M15.1044 20.0868L16.1216 19.0743C16.169 19.027 16.1929 18.9618 16.1929 18.8812C16.1929 18.8095 16.165 18.7457 16.1127 18.6979C16.0014 18.5934 15.8218 18.6047 15.7201 18.72L14.2708 20.1951V18.9089C14.2708 18.8306 14.2429 18.7631 14.1875 18.7082C14.0765 18.5981 13.895 18.599 13.7882 18.7092C13.7352 18.7645 13.7083 18.8315 13.7083 18.9089V21.7462C13.7083 21.824 13.7354 21.8906 13.7891 21.9445C13.8955 22.0509 14.0758 22.0509 14.1866 21.9454C14.2424 21.8915 14.2708 21.8245 14.2708 21.7462V20.9161L14.7168 20.4665L15.8509 21.9122C15.9036 21.9862 15.9812 22.0251 16.075 22.0251C16.153 22.0251 16.2196 21.9979 16.273 21.9445C16.3272 21.8901 16.3536 21.8222 16.3494 21.7509C16.3494 21.689 16.3272 21.629 16.2831 21.5728L15.1044 20.0868Z" fill="white"/>
</g>
<defs>
<clipPath id="clip0_64_2789">
<rect width="24" height="24" fill="white" transform="translate(0 0.375)"/>
</clipPath>
</defs>
</svg>
