<svg width="24" height="25" viewBox="0 0 24 25" fill="none" xmlns="http://www.w3.org/2000/svg">
<path d="M21.2887 1.12689H2.71077C1.91062 1.12689 1.25952 1.77799 1.25952 2.57814V3.24705C1.25952 4.0472 1.91062 4.6983 2.71077 4.6983H7.69171L6.75233 5.58189C6.51983 5.80033 6.39515 6.10736 6.40968 6.42471C6.42421 6.74158 6.57655 7.03642 6.8278 7.23283L10.2014 9.86908L9.62155 10.6266C9.53015 10.7461 9.52171 10.9102 9.6014 11.0381L11.6376 14.3231V17.1136C11.1066 17.2706 10.718 17.7619 10.718 18.3431C10.718 19.0505 11.2931 19.6256 12.0005 19.6256C12.7078 19.6256 13.283 19.0505 13.283 18.3431C13.283 17.7619 12.8944 17.2706 12.3633 17.1136V14.3231L14.3995 11.0381C14.4787 10.9102 14.4708 10.7461 14.3794 10.6266L13.7995 9.86908L17.1736 7.23283C17.4248 7.03642 17.5772 6.74205 17.5917 6.42471C17.6062 6.10783 17.4811 5.80033 17.2491 5.58189L16.3097 4.6983H21.2901C22.0903 4.6983 22.7414 4.0472 22.7414 3.24705V2.57814C22.7405 1.77799 22.0894 1.12689 21.2887 1.12689ZM12.5569 18.3431C12.5569 18.6502 12.307 18.9 12 18.9C11.693 18.9 11.4431 18.6502 11.4431 18.3431C11.4431 18.0361 11.693 17.7863 12 17.7863C12.307 17.7863 12.5569 18.0361 12.5569 18.3431ZM12 13.531L10.35 10.8689L10.8872 10.1672H13.1128L13.65 10.8689L12 13.531ZM16.7508 6.11064C16.83 6.1847 16.8708 6.28455 16.8656 6.39142C16.8605 6.4983 16.8108 6.59392 16.7255 6.66096L13.1667 9.44158H10.8328L7.27405 6.66096C7.18874 6.59392 7.13858 6.4983 7.1339 6.39142C7.12921 6.28455 7.16999 6.1847 7.24874 6.11064L8.75015 4.6983H15.2484L16.7508 6.11064ZM22.0148 3.24705C22.0148 3.64736 21.6891 3.97267 21.2892 3.97267H2.71077C2.31046 3.97267 1.98515 3.64689 1.98515 3.24705V2.57814C1.98515 2.17783 2.31093 1.85252 2.71077 1.85252H21.2887C21.6891 1.85252 22.0144 2.1783 22.0144 2.57814V3.24705H22.0148ZM12.3628 20.3892V23.2603C12.3628 23.461 12.2006 23.6231 12 23.6231C11.7994 23.6231 11.6372 23.461 11.6372 23.2603V20.3892C11.6372 20.1886 11.7994 20.0264 12 20.0264C12.2006 20.0264 12.3628 20.1886 12.3628 20.3892ZM16.5726 20.9831C16.5056 21.0994 16.3833 21.1646 16.2581 21.1646C16.1967 21.1646 16.1344 21.1486 16.0772 21.1158L13.5905 19.68C13.417 19.5797 13.3575 19.358 13.4578 19.1841C13.5581 19.0106 13.7798 18.9511 13.9537 19.0514L16.4405 20.4872C16.6134 20.588 16.673 20.8097 16.5726 20.9831ZM16.5726 15.7031C16.673 15.8766 16.6134 16.0988 16.44 16.1991L13.9533 17.6349C13.8961 17.6677 13.8337 17.6836 13.7723 17.6836C13.6467 17.6836 13.5248 17.6185 13.4578 17.5022C13.3575 17.3288 13.417 17.1066 13.5905 17.0063L16.0772 15.5705C16.2506 15.4702 16.4723 15.5297 16.5726 15.7031ZM7.92327 15.57L10.41 17.0058C10.5834 17.1061 10.643 17.3278 10.5426 17.5017C10.4756 17.618 10.3533 17.6831 10.2281 17.6831C10.1667 17.6831 10.1044 17.6677 10.0472 17.6344L7.56046 16.1986C7.38702 16.0983 7.32749 15.8766 7.4278 15.7027C7.52765 15.5297 7.74937 15.4702 7.92327 15.57ZM10.4095 19.68L7.9228 21.1158C7.86562 21.1486 7.80327 21.1646 7.74187 21.1646C7.61624 21.1646 7.49437 21.0994 7.42733 20.9831C7.32702 20.8097 7.38655 20.5875 7.55999 20.4872L10.0467 19.0514C10.2201 18.9511 10.4423 19.0106 10.5426 19.1841C10.6425 19.358 10.583 19.5802 10.4095 19.68ZM14.055 21.1767C14.1553 21.3502 14.0958 21.5719 13.9223 21.6722C13.8651 21.705 13.8028 21.721 13.7414 21.721C13.6158 21.721 13.4939 21.6558 13.4269 21.5396L12.7092 20.2964C12.6089 20.123 12.6684 19.9013 12.8419 19.801C13.0153 19.7006 13.237 19.7602 13.3373 19.9336L14.055 21.1767ZM13.6833 18.3431C13.6833 18.1425 13.8455 17.9803 14.0461 17.9803H15.4819C15.6825 17.9803 15.8447 18.1425 15.8447 18.3431C15.8447 18.5438 15.6825 18.706 15.4819 18.706H14.0461C13.8455 18.706 13.6833 18.5438 13.6833 18.3431ZM13.3373 16.7527C13.2703 16.8689 13.148 16.9341 13.0228 16.9341C12.9614 16.9341 12.8991 16.9186 12.8419 16.8853C12.6684 16.785 12.6089 16.5633 12.7092 16.3899L13.4269 15.1467C13.5272 14.9733 13.7489 14.9138 13.9223 15.0141C14.0958 15.1144 14.1553 15.3361 14.055 15.5095L13.3373 16.7527ZM10.6626 16.7527L9.94499 15.5095C9.84468 15.3361 9.90421 15.1144 10.0776 15.0141C10.2516 14.9138 10.4728 14.9733 10.5731 15.1467L11.2908 16.3899C11.3911 16.5633 11.3316 16.785 11.1581 16.8853C11.1009 16.9181 11.0386 16.9341 10.9772 16.9341C10.852 16.9341 10.7301 16.8689 10.6626 16.7527ZM10.3167 18.3431C10.3167 18.5438 10.1545 18.706 9.9539 18.706H8.51812C8.31749 18.706 8.1553 18.5438 8.1553 18.3431C8.1553 18.1425 8.31749 17.9803 8.51812 17.9803H9.9539C10.1545 17.9803 10.3167 18.1425 10.3167 18.3431ZM11.2912 20.2964L10.5731 21.5396C10.5061 21.6558 10.3842 21.721 10.2586 21.721C10.1972 21.721 10.1348 21.7055 10.0776 21.6722C9.90421 21.5719 9.84468 21.3502 9.94499 21.1767L10.6631 19.9336C10.7634 19.7602 10.9851 19.7006 11.1586 19.801C11.332 19.9008 11.3916 20.123 11.2912 20.2964Z" fill="white"/>
</svg>
