<svg width="24" height="24" viewBox="0 0 24 24" fill="none" xmlns="http://www.w3.org/2000/svg">
<path d="M18.1115 1H5.8884C5.4023 1.00055 4.93627 1.19388 4.59255 1.53758C4.24882 1.88127 4.05548 2.34727 4.05493 2.83333V21.1667C4.05548 21.6527 4.24882 22.1187 4.59255 22.4624C4.93627 22.8061 5.4023 22.9995 5.8884 23H18.1115C18.5976 22.9995 19.0637 22.8061 19.4074 22.4624C19.7511 22.1187 19.9445 21.6527 19.945 21.1667V2.83333C19.9445 2.34727 19.7511 1.88127 19.4074 1.53758C19.0637 1.19388 18.5976 1.00055 18.1115 1ZM19.1301 21.1667C19.1298 21.4367 19.0224 21.6956 18.8314 21.8865C18.6405 22.0775 18.3816 22.1849 18.1115 22.1852H5.8884C5.61835 22.1849 5.35945 22.0775 5.1685 21.8865C4.97754 21.6956 4.87012 21.4367 4.86981 21.1667V2.83333C4.87012 2.5633 4.97754 2.30442 5.1685 2.11348C5.35945 1.92254 5.61835 1.81513 5.8884 1.81481H18.1115C18.3816 1.81513 18.6405 1.92254 18.8314 2.11348C19.0224 2.30442 19.1298 2.5633 19.1301 2.83333V21.1667Z" fill="white"/>
<path d="M16.3821 4.25952H7.82589C7.71784 4.25952 7.6142 4.30244 7.53779 4.37885C7.46138 4.45525 7.41846 4.55888 7.41846 4.66693C7.41846 4.77498 7.46138 4.87861 7.53779 4.95501C7.6142 5.03141 7.71784 5.07434 7.82589 5.07434H16.3821C16.4901 5.07434 16.5938 5.03141 16.6702 4.95501C16.7466 4.87861 16.7895 4.77498 16.7895 4.66693C16.7895 4.55888 16.7466 4.45525 16.6702 4.37885C16.5938 4.30244 16.4901 4.25952 16.3821 4.25952Z" fill="white"/>
<path d="M16.3821 6.7041H7.82589C7.71784 6.7041 7.6142 6.74702 7.53779 6.82343C7.46138 6.89983 7.41846 7.00346 7.41846 7.11151C7.41846 7.21956 7.46138 7.32319 7.53779 7.39959C7.6142 7.47599 7.71784 7.51892 7.82589 7.51892H16.3821C16.4901 7.51892 16.5938 7.47599 16.6702 7.39959C16.7466 7.32319 16.7895 7.21956 16.7895 7.11151C16.7895 7.00346 16.7466 6.89983 16.6702 6.82343C16.5938 6.74702 16.4901 6.7041 16.3821 6.7041Z" fill="white"/>
<path d="M16.3821 9.14868H7.82589C7.71784 9.14868 7.6142 9.1916 7.53779 9.26801C7.46138 9.34441 7.41846 9.44804 7.41846 9.55609C7.41846 9.66414 7.46138 9.76777 7.53779 9.84417C7.6142 9.92057 7.71784 9.9635 7.82589 9.9635H16.3821C16.4901 9.9635 16.5938 9.92057 16.6702 9.84417C16.7466 9.76777 16.7895 9.66414 16.7895 9.55609C16.7895 9.44804 16.7466 9.34441 16.6702 9.26801C16.5938 9.1916 16.4901 9.14868 16.3821 9.14868Z" fill="white"/>
<path d="M16.3821 11.5918H7.82589C7.71784 11.5918 7.6142 11.6347 7.53779 11.7111C7.46138 11.7875 7.41846 11.8912 7.41846 11.9992C7.41846 12.1073 7.46138 12.2109 7.53779 12.2873C7.6142 12.3637 7.71784 12.4066 7.82589 12.4066H16.3821C16.4901 12.4066 16.5938 12.3637 16.6702 12.2873C16.7466 12.2109 16.7895 12.1073 16.7895 11.9992C16.7895 11.8912 16.7466 11.7875 16.6702 11.7111C16.5938 11.6347 16.4901 11.5918 16.3821 11.5918Z" fill="white"/>
<path d="M16.3821 14.0365H7.82589C7.71784 14.0365 7.6142 14.0794 7.53779 14.1558C7.46138 14.2322 7.41846 14.3359 7.41846 14.4439C7.41846 14.552 7.46138 14.6556 7.53779 14.732C7.6142 14.8084 7.71784 14.8513 7.82589 14.8513H16.3821C16.4901 14.8513 16.5938 14.8084 16.6702 14.732C16.7466 14.6556 16.7895 14.552 16.7895 14.4439C16.7895 14.3359 16.7466 14.2322 16.6702 14.1558C16.5938 14.0794 16.4901 14.0365 16.3821 14.0365Z" fill="white"/>
<path d="M16.3821 16.481H7.82589C7.71784 16.481 7.6142 16.5239 7.53779 16.6003C7.46138 16.6767 7.41846 16.7803 7.41846 16.8884C7.41846 16.9964 7.46138 17.1 7.53779 17.1764C7.6142 17.2528 7.71784 17.2958 7.82589 17.2958H16.3821C16.4901 17.2958 16.5938 17.2528 16.6702 17.1764C16.7466 17.1 16.7895 16.9964 16.7895 16.8884C16.7895 16.7803 16.7466 16.6767 16.6702 16.6003C16.5938 16.5239 16.4901 16.481 16.3821 16.481Z" fill="white"/>
<path d="M16.3821 18.9255H7.82589C7.71784 18.9255 7.6142 18.9685 7.53779 19.0449C7.46138 19.1213 7.41846 19.2249 7.41846 19.3329C7.41846 19.441 7.46138 19.5446 7.53779 19.621C7.6142 19.6974 7.71784 19.7404 7.82589 19.7404H16.3821C16.4901 19.7404 16.5938 19.6974 16.6702 19.621C16.7466 19.5446 16.7895 19.441 16.7895 19.3329C16.7895 19.2249 16.7466 19.1213 16.6702 19.0449C16.5938 18.9685 16.4901 18.9255 16.3821 18.9255Z" fill="white"/>
</svg>
