<svg width="24" height="24" viewBox="0 0 24 24" fill="none" xmlns="http://www.w3.org/2000/svg">
<path d="M0.999756 5.88846L0.999756 18.1116C1.0003 18.5977 1.19363 19.0637 1.53733 19.4075C1.88103 19.7512 2.34703 19.9445 2.83309 19.9451H21.1664C21.6525 19.9445 22.1185 19.7512 22.4622 19.4075C22.8059 19.0637 22.9992 18.5977 22.9998 18.1116V5.88846C22.9992 5.40236 22.8059 4.93633 22.4622 4.59261C22.1185 4.24888 21.6525 4.05554 21.1664 4.05499L2.83309 4.05499C2.34703 4.05554 1.88103 4.24888 1.53733 4.59261C1.19363 4.93633 1.0003 5.40236 0.999756 5.88846ZM21.1664 4.86987C21.4365 4.87018 21.6953 4.9776 21.8863 5.16856C22.0772 5.35951 22.1846 5.61841 22.1849 5.88846V18.1116C22.1846 18.3816 22.0772 18.6405 21.8863 18.8315C21.6953 19.0225 21.4365 19.1299 21.1664 19.1302H2.83309C2.56306 19.1299 2.30418 19.0225 2.11324 18.8315C1.9223 18.6405 1.81489 18.3816 1.81457 18.1116L1.81457 5.88846C1.81489 5.61841 1.9223 5.35951 2.11324 5.16856C2.30418 4.9776 2.56306 4.87018 2.83309 4.86987L21.1664 4.86987Z" fill="white"/>
<path d="M15.9636 8H7.40744C7.29938 8 7.19574 8.04292 7.11934 8.11933C7.04293 8.19573 7 8.29936 7 8.40741C7 8.51546 7.04293 8.61908 7.11934 8.69549C7.19574 8.77189 7.29938 8.81481 7.40744 8.81481H15.9636C16.0717 8.81481 16.1753 8.77189 16.2517 8.69549C16.3281 8.61908 16.3711 8.51546 16.3711 8.40741C16.3711 8.29936 16.3281 8.19573 16.2517 8.11933C16.1753 8.04292 16.0717 8 15.9636 8Z" fill="white"/>
<path d="M15.9636 10.4446H7.40744C7.29938 10.4446 7.19574 10.4875 7.11934 10.5639C7.04293 10.6403 7 10.7439 7 10.852C7 10.96 7.04293 11.0637 7.11934 11.1401C7.19574 11.2165 7.29938 11.2594 7.40744 11.2594H15.9636C16.0717 11.2594 16.1753 11.2165 16.2517 11.1401C16.3281 11.0637 16.3711 10.96 16.3711 10.852C16.3711 10.7439 16.3281 10.6403 16.2517 10.5639C16.1753 10.4875 16.0717 10.4446 15.9636 10.4446Z" fill="white"/>
<path d="M15.9636 12.8892H7.40744C7.29938 12.8892 7.19574 12.9321 7.11934 13.0085C7.04293 13.0849 7 13.1885 7 13.2966C7 13.4046 7.04293 13.5082 7.11934 13.5846C7.19574 13.6611 7.29938 13.704 7.40744 13.704H15.9636C16.0717 13.704 16.1753 13.6611 16.2517 13.5846C16.3281 13.5082 16.3711 13.4046 16.3711 13.2966C16.3711 13.1885 16.3281 13.0849 16.2517 13.0085C16.1753 12.9321 16.0717 12.8892 15.9636 12.8892Z" fill="white"/>
<path d="M15.9636 15.3323H7.40744C7.29938 15.3323 7.19574 15.3752 7.11934 15.4516C7.04293 15.528 7 15.6316 7 15.7397C7 15.8477 7.04293 15.9514 7.11934 16.0278C7.19574 16.1042 7.29938 16.1471 7.40744 16.1471H15.9636C16.0717 16.1471 16.1753 16.1042 16.2517 16.0278C16.3281 15.9514 16.3711 15.8477 16.3711 15.7397C16.3711 15.6316 16.3281 15.528 16.2517 15.4516C16.1753 15.3752 16.0717 15.3323 15.9636 15.3323Z" fill="white"/>
</svg>
