<svg width="24" height="25" viewBox="0 0 24 25" fill="none" xmlns="http://www.w3.org/2000/svg">
<path d="M21.5625 16.8978H5.20349V15.2885L19.5022 15.2454C19.8897 15.2443 20.2032 14.9298 20.2032 14.5423V10.9784L23.4387 10.0767C23.7953 9.97737 24.0138 9.61855 23.9383 9.25612C23.2437 5.91954 23.288 6.12963 23.2801 6.09995C22.6957 3.91919 20.4583 2.6272 18.2771 3.21149L3.07073 7.2861C2.01859 7.56805 1.13919 8.24285 0.594562 9.18618C-0.532336 11.1381 0.135103 13.6298 2.08722 14.7569C2.6198 15.0644 3.20197 15.2439 3.79727 15.2916V16.8978H2.43793C1.80152 16.8978 1.19619 17.1431 0.73359 17.5887C-0.244342 18.5304 -0.244717 20.046 0.73359 20.988C1.19619 21.4336 1.80152 21.6789 2.43793 21.6789H21.5625C22.8683 21.6789 24 20.6247 24 19.2884C24 17.9512 22.8674 16.8978 21.5625 16.8978ZM18.797 13.8413L9.83216 13.8684L18.797 11.3703V13.8413ZM1.54549 11.9167C1.16324 10.4905 2.00819 9.02667 3.43475 8.64442L18.6411 4.56985C20.0605 4.18937 21.5268 5.02893 21.9169 6.44584L22.4276 8.89871C11.9458 11.8196 10.3909 12.2529 4.81496 13.8067C3.39041 14.1866 1.92761 13.3433 1.54549 11.9167ZM21.5625 20.2727H2.43793C1.87896 20.2727 1.4067 19.8219 1.4067 19.2883C1.4067 18.7548 1.87896 18.304 2.43793 18.304H21.5625C22.1215 18.304 22.5937 18.7548 22.5937 19.2883C22.5937 19.8219 22.1215 20.2727 21.5625 20.2727Z" fill="white"/>
<path d="M4.29233 11.7768C4.67623 11.7768 4.99545 11.4648 4.99545 11.0737C4.99545 10.6487 4.62509 10.3326 4.22342 10.3743C3.82742 10.4145 3.55456 10.7658 3.59295 11.143C3.62192 11.4909 3.92478 11.7768 4.29233 11.7768Z" fill="white"/>
</svg>
