<svg width="24" height="24" viewBox="0 0 24 24" fill="none" xmlns="http://www.w3.org/2000/svg">
<path d="M18.8276 2.51733H7.4475C6.99492 2.51784 6.56103 2.69784 6.24102 3.01783C5.921 3.33783 5.74099 3.77168 5.74048 4.22422V21.2931C5.74099 21.7457 5.921 22.1795 6.24102 22.4995C6.56103 22.8195 6.99492 22.9995 7.4475 23H18.8276C19.2802 22.9995 19.7141 22.8195 20.0341 22.4995C20.3541 22.1795 20.5341 21.7457 20.5346 21.2931V4.22422C20.5341 3.77168 20.3541 3.33783 20.0341 3.01783C19.7141 2.69784 19.2802 2.51784 18.8276 2.51733ZM19.776 21.2931C19.7757 21.5445 19.6756 21.7855 19.4979 21.9633C19.3201 22.1411 19.079 22.2411 18.8276 22.2414H7.4475C7.19607 22.2411 6.95503 22.1411 6.77724 21.9633C6.59946 21.7855 6.49945 21.5445 6.49915 21.2931V4.22422C6.49945 3.97282 6.59946 3.73179 6.77724 3.55402C6.95503 3.37625 7.19607 3.27625 7.4475 3.27595H18.8276C19.079 3.27625 19.3201 3.37625 19.4979 3.55402C19.6756 3.73179 19.7757 3.97282 19.776 4.22422V21.2931Z" fill="white"/>
<path d="M17.2175 5.552H9.25141C9.1508 5.552 9.05431 5.59196 8.98318 5.6631C8.91204 5.73423 8.87207 5.83071 8.87207 5.93131C8.87207 6.03191 8.91204 6.12839 8.98318 6.19952C9.05431 6.27066 9.1508 6.31062 9.25141 6.31062H17.2175C17.3181 6.31062 17.4146 6.27066 17.4857 6.19952C17.5569 6.12839 17.5968 6.03191 17.5968 5.93131C17.5968 5.83071 17.5569 5.73423 17.4857 5.6631C17.4146 5.59196 17.3181 5.552 17.2175 5.552Z" fill="white"/>
<path d="M17.2175 7.828H9.25141C9.1508 7.828 9.05431 7.86797 8.98318 7.9391C8.91204 8.01023 8.87207 8.10671 8.87207 8.20731C8.87207 8.30791 8.91204 8.40439 8.98318 8.47552C9.05431 8.54666 9.1508 8.58662 9.25141 8.58662H17.2175C17.3181 8.58662 17.4146 8.54666 17.4857 8.47552C17.5569 8.40439 17.5968 8.30791 17.5968 8.20731C17.5968 8.10671 17.5569 8.01023 17.4857 7.9391C17.4146 7.86797 17.3181 7.828 17.2175 7.828Z" fill="white"/>
<path d="M17.2175 10.104H9.25141C9.1508 10.104 9.05431 10.144 8.98318 10.2151C8.91204 10.2862 8.87207 10.3827 8.87207 10.4833C8.87207 10.5839 8.91204 10.6804 8.98318 10.7515C9.05431 10.8227 9.1508 10.8626 9.25141 10.8626H17.2175C17.3181 10.8626 17.4146 10.8227 17.4857 10.7515C17.5569 10.6804 17.5968 10.5839 17.5968 10.4833C17.5968 10.3827 17.5569 10.2862 17.4857 10.2151C17.4146 10.144 17.3181 10.104 17.2175 10.104Z" fill="white"/>
<path d="M17.2175 12.3787H9.25141C9.1508 12.3787 9.05431 12.4186 8.98318 12.4898C8.91204 12.5609 8.87207 12.6574 8.87207 12.758C8.87207 12.8586 8.91204 12.955 8.98318 13.0262C9.05431 13.0973 9.1508 13.1373 9.25141 13.1373H17.2175C17.3181 13.1373 17.4146 13.0973 17.4857 13.0262C17.5569 12.955 17.5968 12.8586 17.5968 12.758C17.5968 12.6574 17.5569 12.5609 17.4857 12.4898C17.4146 12.4186 17.3181 12.3787 17.2175 12.3787Z" fill="white"/>
<path d="M17.2175 14.6547H9.25141C9.1508 14.6547 9.05431 14.6946 8.98318 14.7658C8.91204 14.8369 8.87207 14.9334 8.87207 15.034C8.87207 15.1346 8.91204 15.231 8.98318 15.3022C9.05431 15.3733 9.1508 15.4133 9.25141 15.4133H17.2175C17.3181 15.4133 17.4146 15.3733 17.4857 15.3022C17.5569 15.231 17.5968 15.1346 17.5968 15.034C17.5968 14.9334 17.5569 14.8369 17.4857 14.7658C17.4146 14.6946 17.3181 14.6547 17.2175 14.6547Z" fill="white"/>
<path d="M17.2175 16.9305H9.25141C9.1508 16.9305 9.05431 16.9705 8.98318 17.0416C8.91204 17.1128 8.87207 17.2093 8.87207 17.3099C8.87207 17.4104 8.91204 17.5069 8.98318 17.5781C9.05431 17.6492 9.1508 17.6892 9.25141 17.6892H17.2175C17.3181 17.6892 17.4146 17.6492 17.4857 17.5781C17.5569 17.5069 17.5968 17.4104 17.5968 17.3099C17.5968 17.2093 17.5569 17.1128 17.4857 17.0416C17.4146 16.9705 17.3181 16.9305 17.2175 16.9305Z" fill="white"/>
<path d="M17.2175 19.2065H9.25141C9.1508 19.2065 9.05431 19.2465 8.98318 19.3176C8.91204 19.3888 8.87207 19.4853 8.87207 19.5859C8.87207 19.6865 8.91204 19.7829 8.98318 19.8541C9.05431 19.9252 9.1508 19.9652 9.25141 19.9652H17.2175C17.3181 19.9652 17.4146 19.9252 17.4857 19.8541C17.5569 19.7829 17.5968 19.6865 17.5968 19.5859C17.5968 19.4853 17.5569 19.3888 17.4857 19.3176C17.4146 19.2465 17.3181 19.2065 17.2175 19.2065Z" fill="white"/>
<path d="M5.8667 1.37931C5.8667 1.47991 5.90667 1.57638 5.97781 1.64752C6.04895 1.71865 6.14543 1.75861 6.24604 1.75862H6.43682C6.53742 1.75862 6.63391 1.71865 6.70505 1.64752C6.77619 1.57639 6.81615 1.47991 6.81615 1.37931C6.81615 1.27871 6.77619 1.18223 6.70505 1.1111C6.63391 1.03996 6.53742 1 6.43682 1H6.24604C6.14543 1.00001 6.04895 1.03997 5.97781 1.1111C5.90667 1.18224 5.8667 1.27871 5.8667 1.37931Z" fill="white"/>
<path d="M3.84491 6.79277C3.94552 6.79277 4.042 6.7528 4.11314 6.68167C4.18428 6.61054 4.22425 6.51406 4.22425 6.41347V6.22269C4.22425 6.12209 4.18428 6.02561 4.11315 5.95448C4.04201 5.88335 3.94552 5.84338 3.84491 5.84338C3.74431 5.84338 3.64782 5.88335 3.57668 5.95448C3.50554 6.02561 3.46558 6.12209 3.46558 6.22269V6.41347C3.46558 6.51406 3.50555 6.61054 3.57669 6.68167C3.64783 6.7528 3.74431 6.79277 3.84491 6.79277Z" fill="white"/>
<path d="M3.84491 5.0767C3.94552 5.0767 4.042 5.03673 4.11314 4.9656C4.18428 4.89447 4.22425 4.79799 4.22425 4.69739V4.50663C4.22425 4.40603 4.18428 4.30955 4.11315 4.23842C4.04201 4.16728 3.94552 4.12732 3.84491 4.12732C3.74431 4.12732 3.64782 4.16728 3.57668 4.23842C3.50554 4.30955 3.46558 4.40603 3.46558 4.50663V4.69739C3.46558 4.79799 3.50555 4.89447 3.57669 4.9656C3.64783 5.03673 3.74431 5.0767 3.84491 5.0767Z" fill="white"/>
<path d="M7.58276 1.37931C7.58277 1.47991 7.62274 1.57638 7.69387 1.64752C7.76501 1.71865 7.8615 1.75861 7.9621 1.75862H8.15279C8.25339 1.75862 8.34988 1.71865 8.42102 1.64752C8.49216 1.57639 8.53213 1.47991 8.53213 1.37931C8.53213 1.27871 8.49216 1.18223 8.42102 1.1111C8.34988 1.03996 8.25339 1 8.15279 1H7.9621C7.8615 1.00001 7.76501 1.03997 7.69387 1.1111C7.62274 1.18224 7.58277 1.27871 7.58276 1.37931Z" fill="white"/>
<path d="M3.84491 3.36064C3.94552 3.36063 4.042 3.32067 4.11314 3.24954C4.18428 3.1784 4.22425 3.08193 4.22425 2.98133V2.79056C4.22425 2.68996 4.18428 2.59349 4.11315 2.52235C4.04201 2.45122 3.94552 2.41125 3.84491 2.41125C3.74431 2.41125 3.64782 2.45122 3.57668 2.52235C3.50554 2.59349 3.46558 2.68996 3.46558 2.79056V2.98133C3.46558 3.08193 3.50555 3.1784 3.57669 3.24954C3.64783 3.32067 3.74431 3.36063 3.84491 3.36064Z" fill="white"/>
<path d="M9.29907 1.37931C9.29908 1.47991 9.33904 1.57638 9.41018 1.64752C9.48132 1.71865 9.5778 1.75861 9.67841 1.75862H9.8691C9.9697 1.75862 10.0662 1.71865 10.1373 1.64752C10.2085 1.57639 10.2484 1.47991 10.2484 1.37931C10.2484 1.27871 10.2085 1.18223 10.1373 1.1111C10.0662 1.03996 9.9697 1 9.8691 1H9.67841C9.5778 1.00001 9.48132 1.03997 9.41018 1.1111C9.33904 1.18224 9.29908 1.27871 9.29907 1.37931Z" fill="white"/>
<path d="M16.5524 1.75862H16.8257C16.9113 1.73764 16.9869 1.68742 17.0395 1.61663C17.0921 1.54584 17.1183 1.45892 17.1136 1.37088C17.1089 1.28283 17.0736 1.19919 17.0138 1.13439C16.954 1.06958 16.8735 1.02769 16.7861 1.01593C16.7087 1.00535 16.6306 1.00003 16.5524 1H16.5446C16.495 1.00008 16.4459 1.00998 16.4001 1.02911C16.3543 1.04825 16.3128 1.07626 16.2779 1.11152C16.243 1.14678 16.2155 1.18859 16.1968 1.23455C16.1781 1.28051 16.1688 1.32971 16.1692 1.37931C16.1701 1.48031 16.2109 1.57686 16.2827 1.64791C16.3545 1.71897 16.4514 1.75876 16.5524 1.75862Z" fill="white"/>
<path d="M14.4502 1.37931C14.4502 1.47991 14.4902 1.57638 14.5613 1.64752C14.6324 1.71865 14.7289 1.75861 14.8295 1.75862H15.0202C15.1208 1.75862 15.2173 1.71865 15.2885 1.64752C15.3596 1.57639 15.3996 1.47991 15.3996 1.37931C15.3996 1.27871 15.3596 1.18223 15.2885 1.1111C15.2173 1.03996 15.1208 1 15.0202 1H14.8295C14.7289 1.00001 14.6324 1.03997 14.5613 1.1111C14.4902 1.18224 14.4502 1.27871 14.4502 1.37931Z" fill="white"/>
<path d="M11.0151 1.37931C11.0151 1.47991 11.0551 1.57638 11.1262 1.64752C11.1974 1.71865 11.2939 1.75861 11.3945 1.75862H11.5853C11.6859 1.75862 11.7823 1.71865 11.8535 1.64752C11.9246 1.57639 11.9646 1.47991 11.9646 1.37931C11.9646 1.27871 11.9246 1.18223 11.8535 1.1111C11.7823 1.03996 11.6859 1 11.5853 1H11.3945C11.2939 1.00001 11.1974 1.03997 11.1262 1.1111C11.0551 1.18224 11.0151 1.27871 11.0151 1.37931Z" fill="white"/>
<path d="M12.7314 1.37931C12.7315 1.47991 12.7714 1.57638 12.8426 1.64752C12.9137 1.71865 13.0102 1.75861 13.1108 1.75862H13.3015C13.4021 1.75862 13.4986 1.71865 13.5697 1.64752C13.6408 1.57639 13.6808 1.47991 13.6808 1.37931C13.6808 1.27871 13.6408 1.18223 13.5697 1.1111C13.4986 1.03996 13.4021 1 13.3015 1H13.1108C13.0102 1.00001 12.9137 1.03997 12.8426 1.1111C12.7714 1.18224 12.7315 1.27871 12.7314 1.37931Z" fill="white"/>
<path d="M3.84491 11.9423C3.94552 11.9423 4.042 11.9023 4.11314 11.8312C4.18428 11.7601 4.22425 11.6636 4.22425 11.563V11.3722C4.22425 11.2716 4.18428 11.1752 4.11315 11.104C4.04201 11.0329 3.94552 10.9929 3.84491 10.9929C3.74431 10.9929 3.64782 11.0329 3.57668 11.104C3.50554 11.1752 3.46558 11.2716 3.46558 11.3722V11.563C3.46558 11.6636 3.50555 11.7601 3.57669 11.8312C3.64783 11.9023 3.74431 11.9423 3.84491 11.9423Z" fill="white"/>
<path d="M3.84491 18.8078C3.94552 18.8078 4.042 18.7678 4.11314 18.6967C4.18428 18.6255 4.22425 18.5291 4.22425 18.4285V18.2377C4.22425 18.1371 4.18428 18.0406 4.11315 17.9695C4.04201 17.8984 3.94552 17.8584 3.84491 17.8584C3.74431 17.8584 3.64782 17.8984 3.57668 17.9695C3.50554 18.0406 3.46558 18.1371 3.46558 18.2377V18.4285C3.46558 18.5291 3.50555 18.6255 3.57669 18.6967C3.64783 18.7678 3.74431 18.8078 3.84491 18.8078Z" fill="white"/>
<path d="M4.23435 19.9036C4.22775 19.8542 4.2115 19.8066 4.18651 19.7635C4.16153 19.7204 4.1283 19.6827 4.08872 19.6524C4.04915 19.6222 4.004 19.6 3.95586 19.5872C3.90772 19.5744 3.85752 19.5712 3.80815 19.5778C3.75877 19.5844 3.71117 19.6006 3.66808 19.6256C3.62498 19.6506 3.58723 19.6838 3.55697 19.7234C3.52672 19.763 3.50456 19.8081 3.49175 19.8563C3.47895 19.9044 3.47575 19.9546 3.48234 20.004C3.49323 20.0851 3.50991 20.1653 3.53226 20.244C3.55977 20.3408 3.62459 20.4226 3.71248 20.4716C3.80036 20.5206 3.9041 20.5327 4.00087 20.5051C4.09765 20.4776 4.17953 20.4128 4.22851 20.3249C4.27749 20.2371 4.28955 20.1333 4.26204 20.0366C4.2496 19.993 4.24035 19.9485 4.23435 19.9036Z" fill="white"/>
<path d="M3.84491 8.51017C3.94552 8.51017 4.042 8.4702 4.11314 8.39907C4.18428 8.32794 4.22425 8.23146 4.22425 8.13087V7.9401C4.22425 7.8395 4.18428 7.74302 4.11315 7.67189C4.04201 7.60075 3.94552 7.56079 3.84491 7.56079C3.74431 7.56079 3.64782 7.60075 3.57668 7.67189C3.50554 7.74302 3.46558 7.8395 3.46558 7.9401V8.13087C3.46558 8.23146 3.50555 8.32794 3.57669 8.39907C3.64783 8.4702 3.74431 8.51017 3.84491 8.51017Z" fill="white"/>
<path d="M4.98409 20.7118C4.88818 20.7115 4.79571 20.7475 4.72538 20.8127C4.65505 20.878 4.6121 20.9674 4.60522 21.0631C4.59834 21.1588 4.62804 21.2535 4.68831 21.3281C4.74858 21.4027 4.83494 21.4516 4.92991 21.465C4.95073 21.468 4.97205 21.4673 4.99305 21.4695C4.98886 21.4109 4.98409 21.3524 4.98409 21.2927V20.7118Z" fill="white"/>
<path d="M4.60154 1.09829C4.5247 1.12566 4.4499 1.15846 4.3777 1.19645C4.33354 1.2196 4.29438 1.25124 4.26246 1.28954C4.23055 1.32784 4.20649 1.37206 4.19168 1.41967C4.17687 1.46728 4.17159 1.51734 4.17615 1.56699C4.1807 1.61664 4.19501 1.6649 4.21823 1.70902C4.24146 1.75314 4.27316 1.79224 4.31152 1.8241C4.34988 1.85595 4.39414 1.87993 4.44178 1.89467C4.48941 1.9094 4.53949 1.9146 4.58913 1.90996C4.63878 1.90532 4.68702 1.89094 4.73111 1.86765C4.7715 1.8465 4.8133 1.82818 4.85623 1.81282C4.95079 1.7789 5.02803 1.70885 5.071 1.61805C5.11397 1.52725 5.11916 1.42311 5.08544 1.32849C5.05171 1.23386 4.98182 1.15648 4.8911 1.11333C4.80038 1.07017 4.69625 1.06476 4.60154 1.09829Z" fill="white"/>
<path d="M3.84491 13.6597C3.94552 13.6597 4.042 13.6197 4.11314 13.5486C4.18428 13.4775 4.22425 13.381 4.22425 13.2804V13.0896C4.22425 12.989 4.18428 12.8926 4.11315 12.8214C4.04201 12.7503 3.94552 12.7103 3.84491 12.7103C3.74431 12.7103 3.64782 12.7503 3.57668 12.8214C3.50554 12.8926 3.46558 12.989 3.46558 13.0896V13.2804C3.46558 13.381 3.50555 13.4775 3.57669 13.5486C3.64783 13.6197 3.74431 13.6597 3.84491 13.6597Z" fill="white"/>
<path d="M3.84491 10.2262C3.94552 10.2262 4.042 10.1863 4.11314 10.1151C4.18428 10.044 4.22425 9.94753 4.22425 9.84693V9.65616C4.22425 9.55557 4.18428 9.45909 4.11315 9.38795C4.04201 9.31682 3.94552 9.27686 3.84491 9.27686C3.74431 9.27686 3.64782 9.31682 3.57668 9.38795C3.50554 9.45909 3.46558 9.55557 3.46558 9.65616V9.84693C3.46558 9.94753 3.50555 10.044 3.57669 10.1151C3.64783 10.1863 3.74431 10.2262 3.84491 10.2262Z" fill="white"/>
<path d="M3.84491 17.0917C3.94552 17.0917 4.042 17.0517 4.11314 16.9806C4.18428 16.9095 4.22425 16.813 4.22425 16.7124V16.5216C4.22425 16.421 4.18428 16.3246 4.11315 16.2534C4.04201 16.1823 3.94552 16.1423 3.84491 16.1423C3.74431 16.1423 3.64782 16.1823 3.57668 16.2534C3.50554 16.3246 3.46558 16.421 3.46558 16.5216V16.7124C3.46558 16.813 3.50555 16.9095 3.57669 16.9806C3.64783 17.0517 3.74431 17.0917 3.84491 17.0917Z" fill="white"/>
<path d="M3.84491 15.3756C3.94552 15.3756 4.042 15.3356 4.11314 15.2645C4.18428 15.1933 4.22425 15.0969 4.22425 14.9963V14.8057C4.22425 14.7051 4.18428 14.6086 4.11315 14.5375C4.04201 14.4664 3.94552 14.4264 3.84491 14.4264C3.74431 14.4264 3.64782 14.4664 3.57668 14.5375C3.50554 14.6086 3.46558 14.7051 3.46558 14.8057V14.9963C3.46558 15.0969 3.50555 15.1934 3.57669 15.2645C3.64783 15.3356 3.74431 15.3756 3.84491 15.3756Z" fill="white"/>
</svg>
